<?xml version="1.0" encoding="utf-8"?>
<svg version="1.1" xmlns="http://www.w3.org/2000/svg" xmlns:xlink="http://www.w3.org/1999/xlink" viewBox="0 0 55 63">
<style type="text/css">
	.st0{fill:#4798F3;}
	.st1{fill:none;stroke:#FFFFFF;stroke-width:2;stroke-linejoin:round;}
</style>
<g id="v">
	<path id="path-1_14_" class="st0" d="M27.5,10.5c-9.4,0-17,7.7-17,17.1c0,11.3,11.1,16.6,12.4,17.9c1.4,1.3,2.6,4.2,3.1,5.8
				c0.2,0.8,0.9,1.2,1.5,1.2c0.6,0,1.3-0.4,1.5-1.2c0.5-1.6,1.6-4.5,3.1-5.8c1.4-1.3,12.4-6.6,12.4-17.9
				C44.5,18.2,36.9,10.5,27.5,10.5z M27.5,32.3c-2.6,0-4.6-2.1-4.6-4.7c0-2.6,2.1-4.7,4.6-4.7c2.6,0,4.6,2.1,4.6,4.7
				C32.1,30.2,30.1,32.3,27.5,32.3z"/>
</g>
<g>
	<path id="path-1_13_" class="st1" d="M27.5,10.5c-9.4,0-17,7.7-17,17.1c0,11.3,11.1,16.6,12.4,17.9c1.4,1.3,2.6,4.2,3.1,5.8
				c0.2,0.8,0.9,1.2,1.5,1.2c0.6,0,1.3-0.4,1.5-1.2c0.5-1.6,1.6-4.5,3.1-5.8c1.4-1.3,12.4-6.6,12.4-17.9
				C44.5,18.2,36.9,10.5,27.5,10.5z M27.5,32.3c-2.6,0-4.6-2.1-4.6-4.7c0-2.6,2.1-4.7,4.6-4.7c2.6,0,4.6,2.1,4.6,4.7
				C32.1,30.2,30.1,32.3,27.5,32.3z"/>
</g>
</svg>
